<?xml version="1.0" encoding="UTF-8" standalone="no"?><!DOCTYPE svg PUBLIC "-//W3C//DTD SVG 1.1//EN" "http://www.w3.org/Graphics/SVG/1.1/DTD/svg11.dtd"><svg width="100%" height="100%" viewBox="0 0 123 123" version="1.1" xmlns="http://www.w3.org/2000/svg" xmlns:xlink="http://www.w3.org/1999/xlink" xml:space="preserve" xmlns:serif="http://www.serif.com/" style="fill-rule:evenodd;clip-rule:evenodd;stroke-linecap:round;stroke-miterlimit:1.5;"><rect x="0.008" y="0.005" width="122.88" height="122.88" style="fill:none;stroke:#000;stroke-width:10px;"/><g transform="matrix(0.238288,0,0,0.238288,6.43595,20.5021)"><g transform="matrix(87.29,0,0,87.29,20.8298,82.7269)"><path d="M0.591,-0.509c0,0.067 -0.021,0.122 -0.062,0.163c-0.042,0.042 -0.112,0.063 -0.21,0.064l-0.097,0l0,0.19l0.096,0l0,0.092l-0.299,0l0,-0.092l0.092,0l0,-0.552l-0.092,0l0,-0.092l0.274,0c0.074,0 0.133,0.008 0.176,0.024c0.043,0.016 0.075,0.04 0.094,0.073c0.018,0.033 0.028,0.076 0.028,0.13Zm-0.113,-0.002c0,-0.046 -0.013,-0.08 -0.04,-0.101c-0.028,-0.021 -0.074,-0.032 -0.139,-0.032l-0.077,0l0,0.273l0.069,0c0.045,0 0.081,-0.004 0.108,-0.013c0.027,-0.008 0.047,-0.022 0.06,-0.043c0.013,-0.02 0.019,-0.048 0.019,-0.084Z" style="fill-rule:nonzero;"/></g><g transform="matrix(87.29,0,0,87.29,66.9469,82.7269)"><path d="M0.509,-0.647l0.199,0.555l0.082,0l0,0.092l-0.29,0l0,-0.092l0.096,0l-0.057,-0.167l-0.267,0l-0.057,0.167l0.093,0l0,0.092l-0.292,0l0,-0.092l0.089,0l0.198,-0.555l-0.088,0l0,-0.089l0.382,0l0,0.089l-0.088,0Zm-0.101,0l-0.003,0l-0.104,0.302l0.209,0l-0.102,-0.302Z" style="fill-rule:nonzero;"/></g><g transform="matrix(87.29,0,0,87.29,137.316,82.7269)"><path d="M0.585,-0.543c0,0.047 -0.013,0.087 -0.04,0.119c-0.027,0.032 -0.064,0.054 -0.112,0.066l0.13,0.266l0.09,0l0,0.092l-0.165,0l-0.163,-0.343l-0.103,0l0,0.251l0.094,0l0,0.092l-0.305,0l0,-0.092l0.1,0l0,-0.552l-0.1,0l0,-0.092l0.306,0c0.095,0 0.163,0.016 0.205,0.047c0.042,0.03 0.063,0.079 0.063,0.146Zm-0.115,-0.002c0,-0.034 -0.011,-0.059 -0.032,-0.075c-0.021,-0.016 -0.056,-0.024 -0.102,-0.024l-0.114,0l0,0.209l0.107,0c0.048,0 0.083,-0.008 0.107,-0.025c0.023,-0.017 0.034,-0.045 0.034,-0.085Z" style="fill-rule:nonzero;"/></g><g transform="matrix(87.29,0,0,87.29,195.282,82.7269)"><path d="M0.538,-0.467l0,-0.177l-0.152,0l0,0.552l0.096,0l0,0.092l-0.301,0l0,-0.092l0.094,0l0,-0.552l-0.151,0l0,0.177l-0.091,0l0,-0.269l0.596,0l0,0.269l-0.091,0Z" style="fill-rule:nonzero;"/></g><g transform="matrix(87.29,0,0,87.29,252.992,82.7269)"><path d="M0.232,-0.644l0.161,0.227l0.149,-0.227l-0.092,0l0,-0.092l0.294,0l0,0.092l-0.096,0l-0.206,0.309l0,0.243l0.101,0l0,0.092l-0.311,0l0,-0.092l0.099,0l0,-0.243l-0.219,-0.309l-0.09,0l0,-0.092l0.302,0l0,0.092l-0.092,0Z" style="fill-rule:nonzero;"/></g><g transform="matrix(87.29,0,0,87.29,20.8298,191.839)"><path d="M0.591,-0.509c0,0.067 -0.021,0.122 -0.062,0.163c-0.042,0.042 -0.112,0.063 -0.21,0.064l-0.097,0l0,0.19l0.096,0l0,0.092l-0.299,0l0,-0.092l0.092,0l0,-0.552l-0.092,0l0,-0.092l0.274,0c0.074,0 0.133,0.008 0.176,0.024c0.043,0.016 0.075,0.04 0.094,0.073c0.018,0.033 0.028,0.076 0.028,0.13Zm-0.113,-0.002c0,-0.046 -0.013,-0.08 -0.04,-0.101c-0.028,-0.021 -0.074,-0.032 -0.139,-0.032l-0.077,0l0,0.273l0.069,0c0.045,0 0.081,-0.004 0.108,-0.013c0.027,-0.008 0.047,-0.022 0.06,-0.043c0.013,-0.02 0.019,-0.048 0.019,-0.084Z" style="fill-rule:nonzero;"/></g><g transform="matrix(87.29,0,0,87.29,66.9469,191.839)"><path d="M0.509,-0.647l0.199,0.555l0.082,0l0,0.092l-0.29,0l0,-0.092l0.096,0l-0.057,-0.167l-0.267,0l-0.057,0.167l0.093,0l0,0.092l-0.292,0l0,-0.092l0.089,0l0.198,-0.555l-0.088,0l0,-0.089l0.382,0l0,0.089l-0.088,0Zm-0.101,0l-0.003,0l-0.104,0.302l0.209,0l-0.102,-0.302Z" style="fill-rule:nonzero;"/></g><g transform="matrix(87.29,0,0,87.29,137.316,191.839)"><path d="M0.585,-0.543c0,0.047 -0.013,0.087 -0.04,0.119c-0.027,0.032 -0.064,0.054 -0.112,0.066l0.13,0.266l0.09,0l0,0.092l-0.165,0l-0.163,-0.343l-0.103,0l0,0.251l0.094,0l0,0.092l-0.305,0l0,-0.092l0.1,0l0,-0.552l-0.1,0l0,-0.092l0.306,0c0.095,0 0.163,0.016 0.205,0.047c0.042,0.03 0.063,0.079 0.063,0.146Zm-0.115,-0.002c0,-0.034 -0.011,-0.059 -0.032,-0.075c-0.021,-0.016 -0.056,-0.024 -0.102,-0.024l-0.114,0l0,0.209l0.107,0c0.048,0 0.083,-0.008 0.107,-0.025c0.023,-0.017 0.034,-0.045 0.034,-0.085Z" style="fill-rule:nonzero;"/></g><g transform="matrix(87.29,0,0,87.29,195.282,191.839)"><path d="M0.585,-0.543c0,0.047 -0.013,0.087 -0.04,0.119c-0.027,0.032 -0.064,0.054 -0.112,0.066l0.13,0.266l0.09,0l0,0.092l-0.165,0l-0.163,-0.343l-0.103,0l0,0.251l0.094,0l0,0.092l-0.305,0l0,-0.092l0.1,0l0,-0.552l-0.1,0l0,-0.092l0.306,0c0.095,0 0.163,0.016 0.205,0.047c0.042,0.03 0.063,0.079 0.063,0.146Zm-0.115,-0.002c0,-0.034 -0.011,-0.059 -0.032,-0.075c-0.021,-0.016 -0.056,-0.024 -0.102,-0.024l-0.114,0l0,0.209l0.107,0c0.048,0 0.083,-0.008 0.107,-0.025c0.023,-0.017 0.034,-0.045 0.034,-0.085Z" style="fill-rule:nonzero;"/></g><g transform="matrix(87.29,0,0,87.29,253.248,191.839)"><path d="M0.811,-0.37c0,0.075 -0.016,0.141 -0.05,0.2c-0.033,0.058 -0.078,0.103 -0.136,0.135c-0.059,0.031 -0.125,0.047 -0.199,0.047c-0.073,0 -0.139,-0.016 -0.196,-0.049c-0.056,-0.033 -0.101,-0.079 -0.133,-0.138c-0.031,-0.058 -0.047,-0.124 -0.047,-0.197c0,-0.073 0.016,-0.137 0.048,-0.194c0.033,-0.057 0.077,-0.102 0.134,-0.134c0.057,-0.032 0.122,-0.048 0.195,-0.048c0.075,0 0.142,0.016 0.2,0.05c0.059,0.033 0.104,0.078 0.136,0.135c0.032,0.057 0.048,0.122 0.048,0.193Zm-0.381,0.284c0.051,0 0.096,-0.013 0.135,-0.039c0.04,-0.027 0.071,-0.062 0.092,-0.105c0.022,-0.044 0.033,-0.091 0.033,-0.14c0,-0.051 -0.012,-0.097 -0.034,-0.14c-0.023,-0.044 -0.055,-0.078 -0.095,-0.103c-0.041,-0.024 -0.086,-0.037 -0.137,-0.037c-0.05,0 -0.094,0.012 -0.132,0.036c-0.039,0.025 -0.069,0.058 -0.09,0.101c-0.021,0.042 -0.031,0.09 -0.031,0.142c0,0.055 0.01,0.105 0.031,0.148c0.021,0.043 0.052,0.077 0.091,0.101c0.039,0.024 0.085,0.036 0.137,0.036Z" style="fill-rule:nonzero;"/></g><g transform="matrix(87.29,0,0,87.29,328.391,191.839)"><path d="M0.538,-0.467l0,-0.177l-0.152,0l0,0.552l0.096,0l0,0.092l-0.301,0l0,-0.092l0.094,0l0,-0.552l-0.151,0l0,0.177l-0.091,0l0,-0.269l0.596,0l0,0.269l-0.091,0Z" style="fill-rule:nonzero;"/></g><g transform="matrix(87.29,0,0,87.29,20.8298,300.95)"><path d="M0.661,-0.655l0,-0.081l0.094,0l0,0.236l-0.096,0c-0.024,-0.047 -0.057,-0.084 -0.099,-0.11c-0.042,-0.027 -0.088,-0.04 -0.138,-0.04c-0.049,0 -0.092,0.013 -0.13,0.038c-0.038,0.026 -0.068,0.06 -0.089,0.103c-0.021,0.043 -0.032,0.089 -0.032,0.138c0,0.051 0.011,0.098 0.033,0.141c0.023,0.042 0.053,0.077 0.092,0.103c0.039,0.025 0.083,0.038 0.131,0.038c0.059,0 0.111,-0.018 0.156,-0.054c0.045,-0.036 0.078,-0.087 0.099,-0.153l0.094,0.05c-0.026,0.082 -0.07,0.145 -0.135,0.191c-0.064,0.045 -0.139,0.067 -0.226,0.067c-0.071,0 -0.135,-0.017 -0.19,-0.051c-0.055,-0.034 -0.098,-0.08 -0.129,-0.137c-0.031,-0.057 -0.046,-0.121 -0.046,-0.189c0,-0.075 0.016,-0.141 0.047,-0.199c0.031,-0.059 0.075,-0.104 0.13,-0.136c0.055,-0.032 0.119,-0.048 0.19,-0.048c0.048,0 0.092,0.008 0.132,0.024c0.041,0.016 0.078,0.039 0.112,0.069Z" style="fill-rule:nonzero;"/></g><g transform="matrix(87.29,0,0,87.29,90.1759,300.95)"><path d="M0.509,-0.647l0.199,0.555l0.082,0l0,0.092l-0.29,0l0,-0.092l0.096,0l-0.057,-0.167l-0.267,0l-0.057,0.167l0.093,0l0,0.092l-0.292,0l0,-0.092l0.089,0l0.198,-0.555l-0.088,0l0,-0.089l0.382,0l0,0.089l-0.088,0Zm-0.101,0l-0.003,0l-0.104,0.302l0.209,0l-0.102,-0.302Z" style="fill-rule:nonzero;"/></g><g transform="matrix(87.29,0,0,87.29,160.545,300.95)"><path d="M0.672,-0.736l0.255,0l0,0.092l-0.089,0l0,0.552l0.089,0l0,0.092l-0.277,0l0,-0.092l0.087,0l0,-0.552l-0.253,0.652l-0.022,0l-0.251,-0.652l0,0.552l0.081,0l0,0.092l-0.261,0l0,-0.092l0.089,0l0,-0.552l-0.089,0l0,-0.092l0.252,0l0.194,0.504l0.195,-0.504Z" style="fill-rule:nonzero;"/></g></g><g><path d="M100.268,79.891c-5.7,-5.082 -10.506,-3.685 -14.466,0.336c-1.044,11.516 1.766,21.469 8.227,30.419c6.211,-7.071 6.18,-27.3 6.239,-30.755Z" style="fill:none;stroke:#000;stroke-width:1.5px;"/><ellipse cx="76.632" cy="82.122" rx="3.223" ry="4.272"/><ellipse cx="105.636" cy="82.073" rx="3.223" ry="4.272"/></g></svg>